<svg viewBox="0 0 1000 460" xmlns="http://www.w3.org/2000/svg" xmlns:c2pa="http://c2pa.org/manifest"><metadata><c2pa:manifest>AAAWgmp1bWIAAAAeanVtZGMycGEAEQAQgAAAqgA4m3EDYzJwYQAAABZcanVtYgAAAEdqdW1kYzJtYQARABCAAACqADibcQN1cm46YzJwYTo5Y2NjYTNkNy1mNGEwLTQzMzUtYjczMC1lMjU0YTM3MWIwNjUAAAADl2p1bWIAAAApanVtZGMyYXMAEQAQgAAAqgA4m3EDYzJwYS5hc3NlcnRpb25zAAAAALxqdW1iAAAARGp1bWRjYm9yABEAEIAAAKoAOJtxE2MycGEuaW5ncmVkaWVudC52MwAAAAAYYzJzaAiSLV78tkUlHXEIqG+IrjgAAABwY2JvcqNpZGM6Zm9ybWF0bWltYWdlL3N2Zyt4bWxqaW5zdGFuY2VJRHgseG1wOmlpZDpkM2E5NDIwZi1kYmY3LTRmMWQtOTUyMi02ZmE1ZjczNDFmNjlscmVsYXRpb25zaGlwaHBhcmVudE9mAAAB4mp1bWIAAABBanVtZGNib3IAEQAQgAAAqgA4m3ETYzJwYS5hY3Rpb25zLnYyAAAAABhjMnNocjoQy8Zcgt9ISBVK6Gf23AAAAZljYm9yomdhY3Rpb25zgqJmYWN0aW9ua2MycGEub3BlbmVkanBhcmFtZXRlcnOha2luZ3JlZGllbnRzgaJjdXJseC1zZWxmI2p1bWJmPWMycGEuYXNzZXJ0aW9ucy9jMnBhLmluZ3JlZGllbnQudjNkaGFzaFggZ3Nty9kdBkQTITBT/tloyh59NY18YN9Vld/wkg2LeiSkZmFjdGlvbngdY29tLmFudGhyb3BpYy5jbGF1ZGUucHJvdmlkZWRqcGFyYW1ldGVyc6F4H2NvbS5hbnRocm9waWMub3JpZ2luLWNvbmZpZGVuY2VndW5rbm93bmtkZXNjcmlwdGlvbnhmQ2xhdWRlIHByb3ZpZGVkIHRoaXMgZmlsZSBhdCB0aGUgcmVxdWVzdCBvZiBhIHVzZXIgYW5kIG1heSBoYXZlIGNyZWF0ZWQgb3IgbW9kaWZpZWQgdGhlIGZpbGUgY29udGVudHMubXNvZnR3YXJlQWdlbnShZG5hbWVmQ2xhdWRlcmFsbEFjdGlvbnNJbmNsdWRlZPUAAADIanVtYgAAAEBqdW1kY2JvcgARABCAAACqADibcRNjMnBhLmhhc2guZGF0YQAAAAAYYzJzaLsrlu7hxJSyrQuSbgm6G68AAACAY2JvcqVjYWxnZnNoYTI1NmNwYWRNAAAAAAAAAAAAAAAAAGRoYXNoWCDVQZAJ/yLTQQdT1tiwQHvZWuO3vZaQg7wlkbACjQ0TuWRuYW1lbmp1bWJmIG1hbmlmZXN0amV4Y2x1c2lvbnOBomVzdGFydBh+Zmxlbmd0aBkeBAAAAj5qdW1iAAAAJ2p1bWRjMmNsABEAEIAAAKoAOJtxA2MycGEuY2xhaW0udjIAAAACD2Nib3KlY2FsZ2ZzaGEyNTZpc2lnbmF0dXJleE1zZWxmI2p1bWJmPS9jMnBhL3VybjpjMnBhOjljY2NhM2Q3LWY0YTAtNDMzNS1iNzMwLWUyNTRhMzcxYjA2NS9jMnBhLnNpZ25hdHVyZWppbnN0YW5jZUlEeCx4bXA6aWlkOjBkYjRlZDQ2LTljNzQtNDkwMy04YTM1LWU2MWI0MjQ5NTkxY3JjcmVhdGVkX2Fzc2VydGlvbnODomN1cmx4LXNlbGYjanVtYmY9YzJwYS5hc3NlcnRpb25zL2MycGEuaW5ncmVkaWVudC52M2RoYXNoWCBnc23L2R0GRBMhMFP+2WjKHn01jXxg31WV3/CSDYt6JKJjdXJseCpzZWxmI2p1bWJmPWMycGEuYXNzZXJ0aW9ucy9jMnBhLmFjdGlvbnMudjJkaGFzaFgg6MyITaTk5+lIhIagcQI/ex9tDhz9W3v+kyhQsQnTnt2iY3VybHgpc2VsZiNqdW1iZj1jMnBhLmFzc2VydGlvbnMvYzJwYS5oYXNoLmRhdGFkaGFzaFggMSCeMF/M92a7JKUtgcuTQ3t4KiAFjHBrBnHhbr6JWi50Y2xhaW1fZ2VuZXJhdG9yX2luZm+jZG5hbWVvQW50aHJvcGljIEZpbGVzZ3ZlcnNpb25lMS4wLjBrc3BlY1ZlcnNpb25lMi40LjAAABA4anVtYgAAAChqdW1kYzJjcwARABCAAACqADibcQNjMnBhLnNpZ25hdHVyZQAAABAIY2JvctKEWQISogEmGCFZAgowggIGMIIBjaADAgECAhRA5aAK7sI50L64g/oGQgU9Z1UTADAKBggqhkjOPQQDAzBJMRcwFQYDVQQKEw5BbnRocm9waWMsIFBCQzEuMCwGA1UEAxMlQW50aHJvcGljIENvbnRlbnQgQ3JlZGVudGlhbHMgUm9vdCBDQTAeFw0yNjA4MDcxODQzNTZaFw0yODA4MDYxOTQzNTZaMEQxFzAVBgNVBAoTDkFudGhyb3BpYywgUEJDMSkwJwYDVQQDEyBBbnRocm9waWMgQ2xhdWRlIENvbnRlbnQgU2lnbmluZzBZMBMGByqGSM49AgEGCCqGSM49AwEHA0IABJh6CmvLUBgFFNU0vUKlOVtE6djd17L5SuwX0LemFisBM3dkd/3cyjxFA3Qo5S46fX0/ihY0VZ7mfb9KF703t5OjWDBWMA4GA1UdDwEB/wQEAwIHgDAVBgNVHSUEDjAMBgorBgEEAYPoXgIBMAwGA1UdEwEB/wQCMAAwHwYDVR0jBBgwFoAUzlHiBIFOZFsj+OPEz5o+nMHXXMIwCgYIKoZIzj0EAwMDZwAwZAIwMXMdFJ4BetLLVY7ORuE9noqbbAZOZn/aArXyTwFAZfKrPzxF2vPoJNf1+UCdg1XGAjBwX1zd9WGqYkqmL5SFqw1QySjr1zJfpJM9+1rdDwSPLMOPOjKuiXjoU/pUUeG9RwmhY3BhZFkNngAAAAAAAAAAAAAAAAAAAAAAAAAAAAAAAAAAAAAAAAAAAAAAAAAAAAAAAAAAAAAAAAAAAAAAAAAAAAAAAAAAAAAAAAAAAAAAAAAAAAAAAAAAAAAAAAAAAAAAAAAAAAAAAAAAAAAAAAAAAAAAAAAAAAAAAAAAAAAAAAAAAAAAAAAAAAAAAAAAAAAAAAAAAAAAAAAAAAAAAAAAAAAAAAAAAAAAAAAAAAAAAAAAAAAAAAAAAAAAAAAAAAAAAAAAAAAAAAAAAAAAAAAAAAAAAAAAAAAAAAAAAAAAAAAAAAAAAAAAAAAAAAAAAAAAAAAAAAAAAAAAAAAAAAAAAAAAAAAAAAAAAAAAAAAAAAAAAAAAAAAAAAAAAAAAAAAAAAAAAAAAAAAAAAAAAAAAAAAAAAAAAAAAAAAAAAAAAAAAAAAAAAAAAAAAAAAAAAAAAAAAAAAAAAAAAAAAAAAAAAAAAAAAAAAAAAAAAAAAAAAAAAAAAAAAAAAAAAAAAAAAAAAAAAAAAAAAAAAAAAAAAAAAAAAAAAAAAAAAAAAAAAAAAAAAAAAAAAAAAAAAAAAAAAAAAAAAAAAAAAAAAAAAAAAAAAAAAAAAAAAAAAAAAAAAAAAAAAAAAAAAAAAAAAAAAAAAAAAAAAAAAAAAAAAAAAAAAAAAAAAAAAAAAAAAAAAAAAAAAAAAAAAAAAAAAAAAAAAAAAAAAAAAAAAAAAAAAAAAAAAAAAAAAAAAAAAAAAAAAAAAAAAAAAAAAAAAAAAAAAAAAAAAAAAAAAAAAAAAAAAAAAAAAAAAAAAAAAAAAAAAAAAAAAAAAAAAAAAAAAAAAAAAAAAAAAAAAAAAAAAAAAAAAAAAAAAAAAAAAAAAAAAAAAAAAAAAAAAAAAAAAAAAAAAAAAAAAAAAAAAAAAAAAAAAAAAAAAAAAAAAAAAAAAAAAAAAAAAAAAAAAAAAAAAAAAAAAAAAAAAAAAAAAAAAAAAAAAAAAAAAAAAAAAAAAAAAAAAAAAAAAAAAAAAAAAAAAAAAAAAAAAAAAAAAAAAAAAAAAAAAAAAAAAAAAAAAAAAAAAAAAAAAAAAAAAAAAAAAAAAAAAAAAAAAAAAAAAAAAAAAAAAAAAAAAAAAAAAAAAAAAAAAAAAAAAAAAAAAAAAAAAAAAAAAAAAAAAAAAAAAAAAAAAAAAAAAAAAAAAAAAAAAAAAAAAAAAAAAAAAAAAAAAAAAAAAAAAAAAAAAAAAAAAAAAAAAAAAAAAAAAAAAAAAAAAAAAAAAAAAAAAAAAAAAAAAAAAAAAAAAAAAAAAAAAAAAAAAAAAAAAAAAAAAAAAAAAAAAAAAAAAAAAAAAAAAAAAAAAAAAAAAAAAAAAAAAAAAAAAAAAAAAAAAAAAAAAAAAAAAAAAAAAAAAAAAAAAAAAAAAAAAAAAAAAAAAAAAAAAAAAAAAAAAAAAAAAAAAAAAAAAAAAAAAAAAAAAAAAAAAAAAAAAAAAAAAAAAAAAAAAAAAAAAAAAAAAAAAAAAAAAAAAAAAAAAAAAAAAAAAAAAAAAAAAAAAAAAAAAAAAAAAAAAAAAAAAAAAAAAAAAAAAAAAAAAAAAAAAAAAAAAAAAAAAAAAAAAAAAAAAAAAAAAAAAAAAAAAAAAAAAAAAAAAAAAAAAAAAAAAAAAAAAAAAAAAAAAAAAAAAAAAAAAAAAAAAAAAAAAAAAAAAAAAAAAAAAAAAAAAAAAAAAAAAAAAAAAAAAAAAAAAAAAAAAAAAAAAAAAAAAAAAAAAAAAAAAAAAAAAAAAAAAAAAAAAAAAAAAAAAAAAAAAAAAAAAAAAAAAAAAAAAAAAAAAAAAAAAAAAAAAAAAAAAAAAAAAAAAAAAAAAAAAAAAAAAAAAAAAAAAAAAAAAAAAAAAAAAAAAAAAAAAAAAAAAAAAAAAAAAAAAAAAAAAAAAAAAAAAAAAAAAAAAAAAAAAAAAAAAAAAAAAAAAAAAAAAAAAAAAAAAAAAAAAAAAAAAAAAAAAAAAAAAAAAAAAAAAAAAAAAAAAAAAAAAAAAAAAAAAAAAAAAAAAAAAAAAAAAAAAAAAAAAAAAAAAAAAAAAAAAAAAAAAAAAAAAAAAAAAAAAAAAAAAAAAAAAAAAAAAAAAAAAAAAAAAAAAAAAAAAAAAAAAAAAAAAAAAAAAAAAAAAAAAAAAAAAAAAAAAAAAAAAAAAAAAAAAAAAAAAAAAAAAAAAAAAAAAAAAAAAAAAAAAAAAAAAAAAAAAAAAAAAAAAAAAAAAAAAAAAAAAAAAAAAAAAAAAAAAAAAAAAAAAAAAAAAAAAAAAAAAAAAAAAAAAAAAAAAAAAAAAAAAAAAAAAAAAAAAAAAAAAAAAAAAAAAAAAAAAAAAAAAAAAAAAAAAAAAAAAAAAAAAAAAAAAAAAAAAAAAAAAAAAAAAAAAAAAAAAAAAAAAAAAAAAAAAAAAAAAAAAAAAAAAAAAAAAAAAAAAAAAAAAAAAAAAAAAAAAAAAAAAAAAAAAAAAAAAAAAAAAAAAAAAAAAAAAAAAAAAAAAAAAAAAAAAAAAAAAAAAAAAAAAAAAAAAAAAAAAAAAAAAAAAAAAAAAAAAAAAAAAAAAAAAAAAAAAAAAAAAAAAAAAAAAAAAAAAAAAAAAAAAAAAAAAAAAAAAAAAAAAAAAAAAAAAAAAAAAAAAAAAAAAAAAAAAAAAAAAAAAAAAAAAAAAAAAAAAAAAAAAAAAAAAAAAAAAAAAAAAAAAAAAAAAAAAAAAAAAAAAAAAAAAAAAAAAAAAAAAAAAAAAAAAAAAAAAAAAAAAAAAAAAAAAAAAAAAAAAAAAAAAAAAAAAAAAAAAAAAAAAAAAAAAAAAAAAAAAAAAAAAAAAAAAAAAAAAAAAAAAAAAAAAAAAAAAAAAAAAAAAAAAAAAAAAAAAAAAAAAAAAAAAAAAAAAAAAAAAAAAAAAAAAAAAAAAAAAAAAAAAAAAAAAAAAAAAAAAAAAAAAAAAAAAAAAAAAAAAAAAAAAAAAAAAAAAAAAAAAAAAAAAAAAAAAAAAAAAAAAAAAAAAAAAAAAAAAAAAAAAAAAAAAAAAAAAAAAAAAAAAAAAAAAAAAAAAAAAAAAAAAAAAAAAAAAAAAAAAAAAAAAAAAAAAAAAAAAAAAAAAAAAAAAAAAAAAAAAAAAAAAAAAAAAAAAAAAAAAAAAAAAAAAAAAAAAAAAAAAAAAAAAAAAAAAAAAAAAAAAAAAAAAAAAAAAAAAAAAAAAAAAAAAAAAAAAAAAAAAAAAAAAAAAAAAAAAAAAAAAAAAAAAAAAAAAAAAAAAAAAAAAAAAAAAAAAAAAAAAAAAAAAAAAAAAAAAAAAAAAAAAAAAAAAAAAAAAAAAAAAAAAAAAAAAAAAAAAAAAAAAAAAAAAAAAAAAAAAAAAAAAAAAAAAAAAAAAAAAAAAAAAAAAAAAAAAAAAAAAAAAAAAAAAAAAAAAAAAAAAAAAAAAAAAAAAAAAAAAAAAAAAAAAAAAAAAAAAAAAAAAAAAAAAAAAAAAAAAAAAAAAAAAAAAAAAAAAAAAAAAAAAAAAAAAAAAAAAAAAAAAAAAAAAAAAAAAAAAAAAAAAAAAAAAAAAAAAAAAAAAAAAAAAAAAAAAAAAAAAAAAAAAAAAAAAAAAAAAAAAAAAAAAAAAAAAAAAAAAAAAAAAAAAAAAAAAAAAAAAAAAAAAAAAAAAAAAAAAAAAAAAAAAAAAAAAAAAAAAAAAAAAAAAAAAAAAAAAAAAAAAAAAAAAAAAAAAAAAAAAAAAAAAAAAAAAAAAAAAAAAAAAAAAAAAAAAAAAAAAAAAAAAAAAAAAAAAAAAAAAAAAAAAAAAAAAAAAAAAAAAAAAAAAAAAAAAAAAAAAAAAAAAAAAAAAAAAAAAAAAAAAAAAAAAAAAAAAAAAAAAAAAAAAAAAAAAAAAAAAAAAAAAAAAAAAAAAAAAAAAAAAAAAAAAAAAAAAAAAAAAAAAAAAAAAAAAAAAAAAAAAAAAAAAAAAAAAAAAAAAAAAAAAAAAAAAAAAAAAAAAAAAAAAAAAAAAAAAAAAAAAAAAAAAAAAAAAAAAAAAAAAAAAAAAAAAAAAAAAAAAAAAAAAAAAAAAAAAAAAAAAAAAAAAAAAAAAAAAAAAAAAAAAAAAAAAAAAAAAAAAAAAAAAAAAAAAAAAAAAAAAAAAAAAAAAAAAAAAAAAAAAAAAAAAAAAAAAAAAAAAAAAAAAAAAAAAAAAAAAAAAAAAAAAAAAAAAAAAAAAAAAAAAAAAAAAAAAAAAAAAAAAAAAAAAAAAAAAAAAAAAAAAAAAAAAAAAAAAAAAAAAAAAAAAAAAAAAAAAAAAAAAAAAAAAAAAAAAAAAAAAAAAAAAAAAAAAAAAAAAAAAAAAAAAAAAAAAAAAAAAAAAAAAAAAAAAAAAAAAAAAAAAAAAAAAAAAAAAAAAAAAAAAAAAAAAAAAAAAAAAAAAAAAAAAAAAAAAAAAAAAAAAAAAAAAAAAAAAAAAAAAAAAAAAAAAAAAAAAAAAAAAAAAAAAAAAAAAAAAAAAAAAAAAAAAAAAAAAAAAAAAAAAAAAAAAAAAAAAAAAAAAAAAAAAAAAAAAAAAAAAAAAAAAAAAAAAAAAAAAAAAAAAAAAAAAAAAAAAAAAAAAAAAAAAAAAAAAAAAAAAAAAAAAAAAAAAAAAAAAAAAAAAAAAAAAAAAAAAAAPZYQLEpn3jvIaQ/JbRKGQElYe/lNHVAzixaQ6mGf6po8ZYHyXbuLqsxtEUJlMshcIT2hqCmqAekBWQ9yE1EHw8Yy4g=</c2pa:manifest></metadata><rect width="1000" height="460" fill="#3A6EA5"/><rect x="15" y="15" width="970" height="430" fill="#ECE9D8"/>
<line x1="15" y1="15" x2="985" y2="15" stroke="#FFFFFF" stroke-width="1"/>
<line x1="15" y1="15" x2="15" y2="445" stroke="#FFFFFF" stroke-width="1"/>
<line x1="15" y1="445" x2="985" y2="445" stroke="#404040" stroke-width="1"/>
<line x1="985" y1="15" x2="985" y2="445" stroke="#404040" stroke-width="1"/>
<line x1="16" y1="16" x2="984" y2="16" stroke="#D4D0C8" stroke-width="1"/>
<line x1="16" y1="16" x2="16" y2="444" stroke="#D4D0C8" stroke-width="1"/>
<line x1="16" y1="444" x2="984" y2="444" stroke="#808080" stroke-width="1"/>
<line x1="984" y1="16" x2="984" y2="444" stroke="#808080" stroke-width="1"/>
<defs><linearGradient id="tbgrad1" x1="0" y1="0" x2="1" y2="0">
      <stop offset="0%" stop-color="#0A246A"/>
      <stop offset="100%" stop-color="#A6CAF0"/>
    </linearGradient></defs>
<rect x="17" y="17" width="966" height="24" fill="url(#tbgrad1)"/>
<rect x="21" y="22.0" width="14" height="14" rx="2" fill="#ffffff" opacity="0.85"/>
<text x="28" y="34.0" text-anchor="middle" font-size="11" fill="#0A246A">⚙</text>
<text x="41" y="34.0" font-family="Tahoma, Verdana, sans-serif" font-weight="bold" font-size="13" fill="#ffffff">Control Panel - Stack &amp; Status</text>
<rect x="961.0" y="21.0" width="16" height="16" fill="#ECE9D8"/>
<line x1="961.0" y1="21.0" x2="977.0" y2="21.0" stroke="#FFFFFF" stroke-width="1"/>
<line x1="961.0" y1="21.0" x2="961.0" y2="37.0" stroke="#FFFFFF" stroke-width="1"/>
<line x1="961.0" y1="37.0" x2="977.0" y2="37.0" stroke="#404040" stroke-width="1"/>
<line x1="977.0" y1="21.0" x2="977.0" y2="37.0" stroke="#404040" stroke-width="1"/>
<line x1="962.0" y1="22.0" x2="976.0" y2="22.0" stroke="#D4D0C8" stroke-width="1"/>
<line x1="962.0" y1="22.0" x2="962.0" y2="36.0" stroke="#D4D0C8" stroke-width="1"/>
<line x1="962.0" y1="36.0" x2="976.0" y2="36.0" stroke="#808080" stroke-width="1"/>
<line x1="976.0" y1="22.0" x2="976.0" y2="36.0" stroke="#808080" stroke-width="1"/>
<line x1="965.0" y1="25.0" x2="973.0" y2="33.0" stroke="#000000" stroke-width="1.6"/>
<line x1="973.0" y1="25.0" x2="965.0" y2="33.0" stroke="#000000" stroke-width="1.6"/>
<rect x="942.0" y="21.0" width="16" height="16" fill="#ECE9D8"/>
<line x1="942.0" y1="21.0" x2="958.0" y2="21.0" stroke="#FFFFFF" stroke-width="1"/>
<line x1="942.0" y1="21.0" x2="942.0" y2="37.0" stroke="#FFFFFF" stroke-width="1"/>
<line x1="942.0" y1="37.0" x2="958.0" y2="37.0" stroke="#404040" stroke-width="1"/>
<line x1="958.0" y1="21.0" x2="958.0" y2="37.0" stroke="#404040" stroke-width="1"/>
<line x1="943.0" y1="22.0" x2="957.0" y2="22.0" stroke="#D4D0C8" stroke-width="1"/>
<line x1="943.0" y1="22.0" x2="943.0" y2="36.0" stroke="#D4D0C8" stroke-width="1"/>
<line x1="943.0" y1="36.0" x2="957.0" y2="36.0" stroke="#808080" stroke-width="1"/>
<line x1="957.0" y1="22.0" x2="957.0" y2="36.0" stroke="#808080" stroke-width="1"/>
<rect x="945.5" y="24.5" width="9" height="9" fill="none" stroke="#000000" stroke-width="1.4"/>
<line x1="945.5" y1="26.5" x2="954.5" y2="26.5" stroke="#000000" stroke-width="1"/>
<rect x="923.0" y="21.0" width="16" height="16" fill="#ECE9D8"/>
<line x1="923.0" y1="21.0" x2="939.0" y2="21.0" stroke="#FFFFFF" stroke-width="1"/>
<line x1="923.0" y1="21.0" x2="923.0" y2="37.0" stroke="#FFFFFF" stroke-width="1"/>
<line x1="923.0" y1="37.0" x2="939.0" y2="37.0" stroke="#404040" stroke-width="1"/>
<line x1="939.0" y1="21.0" x2="939.0" y2="37.0" stroke="#404040" stroke-width="1"/>
<line x1="924.0" y1="22.0" x2="938.0" y2="22.0" stroke="#D4D0C8" stroke-width="1"/>
<line x1="924.0" y1="22.0" x2="924.0" y2="36.0" stroke="#D4D0C8" stroke-width="1"/>
<line x1="924.0" y1="36.0" x2="938.0" y2="36.0" stroke="#808080" stroke-width="1"/>
<line x1="938.0" y1="22.0" x2="938.0" y2="36.0" stroke="#808080" stroke-width="1"/>
<line x1="927.0" y1="32.0" x2="935.0" y2="32.0" stroke="#000000" stroke-width="1.6"/>
<rect x="17" y="41" width="966" height="18" fill="#ECE9D8"/>
<text x="25" y="54" font-family="Tahoma, sans-serif" font-size="11" fill="#000000">File</text>
<text x="95" y="54" font-family="Tahoma, sans-serif" font-size="11" fill="#000000">Edit</text>
<text x="165" y="54" font-family="Tahoma, sans-serif" font-size="11" fill="#000000">View</text>
<text x="235" y="54" font-family="Tahoma, sans-serif" font-size="11" fill="#000000">Help</text>
<rect x="19" y="63" width="962" height="374" fill="#ECE9D8"/>
<line x1="19" y1="63" x2="981" y2="63" stroke="#404040" stroke-width="1"/>
<line x1="19" y1="63" x2="19" y2="437" stroke="#404040" stroke-width="1"/>
<line x1="19" y1="437" x2="981" y2="437" stroke="#FFFFFF" stroke-width="1"/>
<line x1="981" y1="63" x2="981" y2="437" stroke="#FFFFFF" stroke-width="1"/>
<line x1="20" y1="64" x2="980" y2="64" stroke="#808080" stroke-width="1"/>
<line x1="20" y1="64" x2="20" y2="436" stroke="#808080" stroke-width="1"/>
<line x1="20" y1="436" x2="980" y2="436" stroke="#D4D0C8" stroke-width="1"/>
<line x1="980" y1="64" x2="980" y2="436" stroke="#D4D0C8" stroke-width="1"/>
<rect x="45" y="93" width="40" height="40" fill="#ECE9D8"/>
<line x1="45" y1="93" x2="85" y2="93" stroke="#FFFFFF" stroke-width="1"/>
<line x1="45" y1="93" x2="45" y2="133" stroke="#FFFFFF" stroke-width="1"/>
<line x1="45" y1="133" x2="85" y2="133" stroke="#404040" stroke-width="1"/>
<line x1="85" y1="93" x2="85" y2="133" stroke="#404040" stroke-width="1"/>
<line x1="46" y1="94" x2="84" y2="94" stroke="#D4D0C8" stroke-width="1"/>
<line x1="46" y1="94" x2="46" y2="132" stroke="#D4D0C8" stroke-width="1"/>
<line x1="46" y1="132" x2="84" y2="132" stroke="#808080" stroke-width="1"/>
<line x1="84" y1="94" x2="84" y2="132" stroke="#808080" stroke-width="1"/>
<rect x="53" y="101" width="24" height="24" fill="#3369E8"/>
<text x="95" y="109" font-family="Tahoma, sans-serif" font-weight="bold" font-size="13" fill="#000000">Studying</text>
<text x="95" y="127" font-family="Tahoma, sans-serif" font-size="10.5" fill="#000000">Probability, Algorithms (CLRS), Transformers</text>
<rect x="500" y="93" width="40" height="40" fill="#ECE9D8"/>
<line x1="500" y1="93" x2="540" y2="93" stroke="#FFFFFF" stroke-width="1"/>
<line x1="500" y1="93" x2="500" y2="133" stroke="#FFFFFF" stroke-width="1"/>
<line x1="500" y1="133" x2="540" y2="133" stroke="#404040" stroke-width="1"/>
<line x1="540" y1="93" x2="540" y2="133" stroke="#404040" stroke-width="1"/>
<line x1="501" y1="94" x2="539" y2="94" stroke="#D4D0C8" stroke-width="1"/>
<line x1="501" y1="94" x2="501" y2="132" stroke="#D4D0C8" stroke-width="1"/>
<line x1="501" y1="132" x2="539" y2="132" stroke="#808080" stroke-width="1"/>
<line x1="539" y1="94" x2="539" y2="132" stroke="#808080" stroke-width="1"/>
<rect x="508" y="101" width="24" height="24" fill="#D50F25"/>
<text x="550" y="109" font-family="Tahoma, sans-serif" font-weight="bold" font-size="13" fill="#000000">Grinding</text>
<text x="550" y="127" font-family="Tahoma, sans-serif" font-size="10.5" fill="#000000">DSA, LeetCode, Codeforces, NeetCode</text>
<rect x="45" y="193" width="40" height="40" fill="#ECE9D8"/>
<line x1="45" y1="193" x2="85" y2="193" stroke="#FFFFFF" stroke-width="1"/>
<line x1="45" y1="193" x2="45" y2="233" stroke="#FFFFFF" stroke-width="1"/>
<line x1="45" y1="233" x2="85" y2="233" stroke="#404040" stroke-width="1"/>
<line x1="85" y1="193" x2="85" y2="233" stroke="#404040" stroke-width="1"/>
<line x1="46" y1="194" x2="84" y2="194" stroke="#D4D0C8" stroke-width="1"/>
<line x1="46" y1="194" x2="46" y2="232" stroke="#D4D0C8" stroke-width="1"/>
<line x1="46" y1="232" x2="84" y2="232" stroke="#808080" stroke-width="1"/>
<line x1="84" y1="194" x2="84" y2="232" stroke="#808080" stroke-width="1"/>
<rect x="53" y="201" width="24" height="24" fill="#EEB211"/>
<text x="95" y="209" font-family="Tahoma, sans-serif" font-weight="bold" font-size="13" fill="#000000">Building</text>
<text x="95" y="227" font-family="Tahoma, sans-serif" font-size="10.5" fill="#000000">Hadhaan Technologies Pvt. Ltd.</text>
<rect x="500" y="193" width="40" height="40" fill="#ECE9D8"/>
<line x1="500" y1="193" x2="540" y2="193" stroke="#FFFFFF" stroke-width="1"/>
<line x1="500" y1="193" x2="500" y2="233" stroke="#FFFFFF" stroke-width="1"/>
<line x1="500" y1="233" x2="540" y2="233" stroke="#404040" stroke-width="1"/>
<line x1="540" y1="193" x2="540" y2="233" stroke="#404040" stroke-width="1"/>
<line x1="501" y1="194" x2="539" y2="194" stroke="#D4D0C8" stroke-width="1"/>
<line x1="501" y1="194" x2="501" y2="232" stroke="#D4D0C8" stroke-width="1"/>
<line x1="501" y1="232" x2="539" y2="232" stroke="#808080" stroke-width="1"/>
<line x1="539" y1="194" x2="539" y2="232" stroke="#808080" stroke-width="1"/>
<rect x="508" y="201" width="24" height="24" fill="#009925"/>
<text x="550" y="209" font-family="Tahoma, sans-serif" font-weight="bold" font-size="13" fill="#000000">Ask Me About</text>
<text x="550" y="227" font-family="Tahoma, sans-serif" font-size="10.5" fill="#000000">Startups, AI/ML, Maths, EEE to Software</text>
<text x="45" y="313" font-family="Tahoma, sans-serif" font-size="10.5" fill="#000000">CPU Usage</text>
<rect x="45" y="321" width="910" height="20" fill="#ffffff"/>
<line x1="45" y1="321" x2="955" y2="321" stroke="#404040" stroke-width="1"/>
<line x1="45" y1="321" x2="45" y2="341" stroke="#404040" stroke-width="1"/>
<line x1="45" y1="341" x2="955" y2="341" stroke="#FFFFFF" stroke-width="1"/>
<line x1="955" y1="321" x2="955" y2="341" stroke="#FFFFFF" stroke-width="1"/>
<line x1="46" y1="322" x2="954" y2="322" stroke="#808080" stroke-width="1"/>
<line x1="46" y1="322" x2="46" y2="340" stroke="#808080" stroke-width="1"/>
<line x1="46" y1="340" x2="954" y2="340" stroke="#D4D0C8" stroke-width="1"/>
<line x1="954" y1="322" x2="954" y2="340" stroke="#D4D0C8" stroke-width="1"/>
<rect x="48" y="324" width="8" height="14" fill="#0A246A"/>
<rect x="58" y="324" width="8" height="14" fill="#0A246A"/>
<rect x="68" y="324" width="8" height="14" fill="#0A246A"/>
<rect x="78" y="324" width="8" height="14" fill="#0A246A"/>
<rect x="88" y="324" width="8" height="14" fill="#0A246A"/>
<rect x="98" y="324" width="8" height="14" fill="#0A246A"/>
<rect x="108" y="324" width="8" height="14" fill="#0A246A"/>
<rect x="118" y="324" width="8" height="14" fill="#0A246A"/>
<rect x="128" y="324" width="8" height="14" fill="#0A246A"/>
<rect x="138" y="324" width="8" height="14" fill="#0A246A"/>
<rect x="148" y="324" width="8" height="14" fill="#0A246A"/>
<rect x="158" y="324" width="8" height="14" fill="#0A246A"/>
<rect x="168" y="324" width="8" height="14" fill="#0A246A"/>
<rect x="178" y="324" width="8" height="14" fill="#0A246A"/>
<rect x="188" y="324" width="8" height="14" fill="#0A246A"/>
<rect x="198" y="324" width="8" height="14" fill="#0A246A"/>
<rect x="208" y="324" width="8" height="14" fill="#0A246A"/>
<rect x="218" y="324" width="8" height="14" fill="#0A246A"/>
<rect x="228" y="324" width="8" height="14" fill="#0A246A"/>
<rect x="238" y="324" width="8" height="14" fill="#0A246A"/>
<rect x="248" y="324" width="8" height="14" fill="#0A246A"/>
<rect x="258" y="324" width="8" height="14" fill="#0A246A"/>
<rect x="268" y="324" width="8" height="14" fill="#0A246A"/>
<rect x="278" y="324" width="8" height="14" fill="#0A246A"/>
<rect x="288" y="324" width="8" height="14" fill="#0A246A"/>
<rect x="298" y="324" width="8" height="14" fill="#0A246A"/>
<rect x="308" y="324" width="8" height="14" fill="#0A246A"/>
<rect x="318" y="324" width="8" height="14" fill="#0A246A"/>
<rect x="328" y="324" width="8" height="14" fill="#0A246A"/>
<rect x="338" y="324" width="8" height="14" fill="#0A246A"/>
<rect x="348" y="324" width="8" height="14" fill="#0A246A"/>
<rect x="358" y="324" width="8" height="14" fill="#0A246A"/>
<rect x="368" y="324" width="8" height="14" fill="#0A246A"/>
<rect x="378" y="324" width="8" height="14" fill="#0A246A"/>
<rect x="388" y="324" width="8" height="14" fill="#0A246A"/>
<rect x="398" y="324" width="8" height="14" fill="#0A246A"/>
<rect x="408" y="324" width="8" height="14" fill="#0A246A"/>
<rect x="418" y="324" width="8" height="14" fill="#0A246A"/>
<rect x="428" y="324" width="8" height="14" fill="#0A246A"/>
<rect x="438" y="324" width="8" height="14" fill="#0A246A"/>
<rect x="448" y="324" width="8" height="14" fill="#0A246A"/>
<rect x="458" y="324" width="8" height="14" fill="#0A246A"/>
<rect x="468" y="324" width="8" height="14" fill="#0A246A"/>
<rect x="478" y="324" width="8" height="14" fill="#0A246A"/>
<rect x="488" y="324" width="8" height="14" fill="#0A246A"/>
<rect x="498" y="324" width="8" height="14" fill="#0A246A"/>
<rect x="508" y="324" width="8" height="14" fill="#0A246A"/>
<rect x="518" y="324" width="8" height="14" fill="#0A246A"/>
<rect x="528" y="324" width="8" height="14" fill="#0A246A"/>
<rect x="538" y="324" width="8" height="14" fill="#0A246A"/>
<rect x="548" y="324" width="8" height="14" fill="#0A246A"/>
<rect x="558" y="324" width="8" height="14" fill="#0A246A"/>
<rect x="568" y="324" width="8" height="14" fill="#0A246A"/>
<rect x="578" y="324" width="8" height="14" fill="#0A246A"/>
<rect x="588" y="324" width="8" height="14" fill="#0A246A"/>
<rect x="598" y="324" width="8" height="14" fill="#0A246A"/>
<rect x="608" y="324" width="8" height="14" fill="#0A246A"/>
<rect x="618" y="324" width="8" height="14" fill="#0A246A"/>
<rect x="628" y="324" width="8" height="14" fill="#0A246A"/>
<rect x="638" y="324" width="8" height="14" fill="#0A246A"/>
<rect x="648" y="324" width="8" height="14" fill="#0A246A"/>
<rect x="658" y="324" width="8" height="14" fill="#0A246A"/>
<rect x="668" y="324" width="8" height="14" fill="#0A246A"/>
<rect x="678" y="324" width="8" height="14" fill="#0A246A"/>
<rect x="688" y="324" width="8" height="14" fill="#0A246A"/>
<rect x="698" y="324" width="8" height="14" fill="#0A246A"/>
<rect x="708" y="324" width="8" height="14" fill="#0A246A"/>
<rect x="718" y="324" width="8" height="14" fill="#0A246A"/>
<rect x="728" y="324" width="8" height="14" fill="#0A246A"/>
<rect x="738" y="324" width="8" height="14" fill="#0A246A"/>
<rect x="748" y="324" width="8" height="14" fill="#0A246A"/>
<rect x="758" y="324" width="8" height="14" fill="#0A246A"/>
<rect x="768" y="324" width="8" height="14" fill="#0A246A"/>
<rect x="778" y="324" width="8" height="14" fill="#0A246A"/>
<rect x="788" y="324" width="8" height="14" fill="#0A246A"/>
<rect x="798" y="324" width="8" height="14" fill="#0A246A"/>
<rect x="808" y="324" width="8" height="14" fill="#0A246A"/>
<rect x="818" y="324" width="8" height="14" fill="#0A246A"/>
<rect x="828" y="324" width="8" height="14" fill="#0A246A"/>
<rect x="838" y="324" width="8" height="14" fill="#0A246A"/>
<rect x="848" y="324" width="8" height="14" fill="#0A246A"/>
<rect x="858" y="324" width="8" height="14" fill="#0A246A"/>
<rect x="868" y="324" width="8" height="14" fill="#0A246A"/></svg>